<svg width="152" height="150" viewBox="0 0 152 150" fill="none" xmlns="http://www.w3.org/2000/svg">
<g clip-path="url(#clip0_316_95)">
<path fill-rule="evenodd" clip-rule="evenodd" d="M112.321 104.643V149.821H107.5V104.643H95.7143V149.821H91.0714V104.643H79.2857V149.821H65.5357V71.6072H53.9286V149.821H49.1071V71.6072H37.5V149.821H32.6786V71.6072H21.0714V101.25C13.2143 98.75 -0.178571 91.4286 1.78571 69.8215C3.03571 42.6786 26.7857 42.8572 26.7857 42.8572H64.6429V31.6072H26.7857C26.7857 31.6072 11.6071 31.6072 0.714286 42.3215V-0.178528H33.5714C33.5714 0.297663 33.5714 0.773853 33.5714 1.25004C33.5714 10.3572 40.8929 17.8572 49.8214 17.8572C58.75 17.8572 66.0714 10.3572 66.0714 1.25004C66.0714 0.773853 66.0714 0.297663 66.0714 -0.178528H150.714V86.0715C141.429 64.2858 117.321 64.4643 117.321 64.4643H79.4643V75.8929H117.321C117.321 75.8929 141.071 75.5358 142.321 102.679C144.107 123.393 131.786 131.071 123.929 133.75V104.643H112.321ZM95.3571 50.8929C104.286 50.8929 111.429 43.5715 111.429 34.2858C111.429 25.1786 104.286 17.6786 95.3571 17.6786C86.25 17.6786 79.1071 25.1786 79.1071 34.2858C79.1071 43.5715 86.25 50.8929 95.3571 50.8929Z" fill="#C3112F"/>
<path d="M0.714286 102.321V149.821H21.0714V112.857C15.7143 111.786 7.32143 109.107 0.714286 102.321Z" fill="#C3112F"/>
<path d="M150.714 124.286C144.464 138.75 131.607 143.929 123.929 145.536V149.821H150.714V124.286Z" fill="#C3112F"/>
</g>
<defs>
<clipPath id="clip0_316_95">
<rect width="151.786" height="150" fill="white"/>
</clipPath>
</defs>
</svg>
